<svg width="243" height="239" viewBox="0 0 243 239" fill="none" xmlns="http://www.w3.org/2000/svg">
<path d="M153.783 194.722C156.612 203.084 163.643 202.218 170.868 199.158C181.088 194.828 194.927 174.511 196.428 164.84C197.806 155.963 194.743 148.941 187.831 147.919" fill="white"/>
<path d="M153.783 194.722C156.612 203.084 163.643 202.218 170.868 199.158C181.088 194.828 194.927 174.511 196.428 164.84C197.806 155.963 194.743 148.941 187.831 147.919" stroke="black" stroke-width="4.99999" stroke-linecap="round" stroke-linejoin="round"/>
<path d="M189.431 75.0543C200.195 77.5805 193.913 94.5919 184.532 111.149C180.89 117.578 190.437 144.238 183.994 161.007C179.803 171.916 164.415 191.707 153.765 194.291C135.531 198.714 119.633 195.349 103.831 186.598C98.2299 183.496 92.5308 179.12 88.2655 175.075C74.2589 161.792 27.4058 144.821 24.469 140.639C16.3074 129.02 32.6782 122.018 41.564 125.151C45.8679 126.669 78.7538 134.089 74.4186 130.333C63.7692 121.104 49.8395 111.278 36.1555 102.751C15.6786 89.991 41.7305 68.311 60.7814 80.4556C69.7062 86.1448 77.8263 89.846 97.4453 103.01C90.2437 91.9112 80.5063 75.2466 72.2868 65.499C58.7337 49.425 87.3421 34.6489 103.5 54.6502C114.504 68.2714 131.646 94.9825 155.47 113.045C155.517 97.9379 156.96 67.4327 189.429 75.0519L189.431 75.0543Z" fill="white" stroke="black" stroke-width="4.99999" stroke-linecap="round" stroke-linejoin="round"/>
<path d="M98.8252 100.563C108.362 113.446 110.311 122.24 111.786 126.142C106.026 117.901 104.784 115.658 97.9751 107.331C96.8207 105.92 95.2413 104.464 93.0455 103.008L98.8252 100.563Z" fill="black"/>
<path d="M76.0929 128.478C83.1911 134.638 90.2723 143.769 93.4102 150.998C89.5852 147.578 83.063 141.643 77.3509 136.331C75.8015 134.89 74.0659 133.982 71.0655 133.726C73.1006 132.337 74.5232 130.342 76.0932 128.478L76.0929 128.478Z" fill="black"/>
<path d="M154.394 179.438C142.072 175.587 139.492 173.324 133.869 170.564" stroke="black" stroke-width="4.99999" stroke-linecap="round" stroke-linejoin="round"/>
<path d="M162.478 171.144C150.317 163.66 145.176 158.914 137.529 153.191" stroke="black" stroke-width="4.99999" stroke-linecap="round" stroke-linejoin="round"/>
<path d="M171.828 160.96C164.225 154.736 161.217 151.093 156.785 146.651" stroke="black" stroke-width="4.99999" stroke-linecap="round" stroke-linejoin="round"/>
</svg>
