<svg width="242" height="238" viewBox="0 0 242 238" fill="none" xmlns="http://www.w3.org/2000/svg">
<path d="M87.2473 193.311C84.2782 201.625 77.2624 200.639 70.0903 197.458C59.9447 192.957 46.4507 172.409 45.1127 162.713C43.8846 153.815 47.0658 146.846 53.9936 145.94" fill="white"/>
<path d="M87.2473 193.311C84.2782 201.625 77.2624 200.639 70.0903 197.458C59.9447 192.957 46.4507 172.409 45.1127 162.713C43.8846 153.815 47.0658 146.846 53.9936 145.94" stroke="black" stroke-width="4.99999" stroke-linecap="round" stroke-linejoin="round"/>
<path d="M53.624 73.0588C42.8182 75.4031 48.813 92.518 57.9125 109.231C61.4457 115.72 51.4505 142.216 57.6096 159.091C61.6163 170.069 76.6681 190.117 87.2723 192.88C105.429 197.611 121.382 194.515 137.329 186.031C142.982 183.024 148.754 178.745 153.087 174.773C167.316 161.728 214.449 145.55 217.455 141.418C225.812 129.938 209.562 122.661 200.624 125.643C196.295 127.088 163.289 133.953 167.687 130.27C178.491 121.222 192.584 111.633 206.41 103.338C227.099 90.9251 201.417 68.8087 182.164 80.6301C173.144 86.1679 164.963 89.7315 145.125 102.562C152.512 91.5869 162.53 75.089 170.912 65.4815C184.735 49.6385 156.38 34.3818 139.886 54.1075C128.654 67.5412 111.064 93.9592 86.939 111.617C87.1469 96.5115 86.2187 65.9862 53.6256 73.0564L53.624 73.0588Z" fill="white" stroke="black" stroke-width="4.99999" stroke-linecap="round" stroke-linejoin="round"/>
<path d="M143.786 100.093C134.033 112.813 131.937 121.573 130.396 125.449C136.294 117.307 137.573 115.085 144.522 106.874C145.7 105.482 147.304 104.054 149.524 102.635L143.786 100.093Z" fill="black"/>
<path d="M166.044 128.387C158.843 134.426 151.609 143.437 148.349 150.612C152.232 147.257 158.853 141.433 164.654 136.218C166.227 134.803 167.978 133.925 170.982 133.719C168.971 132.297 167.582 130.277 166.044 128.387L166.044 128.387Z" fill="black"/>
<path d="M86.8946 178.019C99.2798 174.376 101.897 172.157 107.567 169.493" stroke="black" stroke-width="4.99999" stroke-linecap="round" stroke-linejoin="round"/>
<path d="M78.9514 169.59C91.2368 162.311 96.4579 157.654 104.2 152.061" stroke="black" stroke-width="4.99999" stroke-linecap="round" stroke-linejoin="round"/>
<path d="M69.775 159.249C77.4821 153.154 80.551 149.563 85.0571 145.196" stroke="black" stroke-width="4.99999" stroke-linecap="round" stroke-linejoin="round"/>
</svg>
