<svg width="150" height="131" viewBox="0 0 150 131" fill="none" xmlns="http://www.w3.org/2000/svg">
<path d="M22.7274 85.7956C14.5855 89.1356 10.6665 83.2562 8.24894 75.7912C4.83205 65.2308 11.1396 41.4715 17.4505 34.0036C23.2876 27.1567 30.5135 24.8628 35.8897 29.4313" fill="white"/>
<path d="M22.7274 85.7956C14.5855 89.1356 10.6665 83.2562 8.24894 75.7912C4.83205 65.2308 11.1396 41.4715 17.4505 34.0036C23.2876 27.1567 30.5135 24.8628 35.8897 29.4313" stroke="black" stroke-width="4.99983" stroke-linecap="round" stroke-linejoin="round"/>
<path d="M90.5952 11.7599C71.6787 7.65494 38.8988 20.7839 28.4399 40.8882C23.1545 51.2887 18.0989 75.7926 23.1427 85.5394C31.6868 102.219 44.6987 112.038 61.654 118.263C67.6601 120.462 74.6614 121.897 80.5525 122.481C104.595 125.063 123.54 120.382 123.385 103.665C143.721 101.831 143.881 70.9139 128.975 68.3729C148.758 55.7574 136.204 30.7721 114.042 36.6582C111.903 32.8163 110.234 16.028 90.5952 11.7599V11.7599Z" fill="white" stroke="black" stroke-width="4.99983" stroke-linecap="round" stroke-linejoin="round"/>
<path d="M127.864 70.7892C112.01 73.1435 106.039 70.2226 101.851 69.7091C111.871 68.4875 114.441 68.4449 124.987 66.3557C126.781 65.9982 128.627 65.4468 130.815 63.903L130.716 71.5147C131.074 71.6246 129.006 70.7943 127.865 70.7892L127.864 70.7892Z" fill="black"/>
<path d="M124.953 105.937C115.553 106.313 103.955 105.71 96.726 102.592C101.897 102.461 115.245 101.235 123.036 101.194C123.036 101.178 123.019 101.207 124.953 105.937L124.953 105.937Z" fill="black"/>
<path d="M33.8832 75.3313C44.8864 82.1296 48.3016 82.603 54.0198 85.0407" stroke="black" stroke-width="4.99983" stroke-linecap="round" stroke-linejoin="round"/>
<path d="M34.8629 63.7909C48.5111 68.0925 55.4919 68.8789 64.7674 70.9051" stroke="black" stroke-width="4.99983" stroke-linecap="round" stroke-linejoin="round"/>
<path d="M36.4442 50.0567C46.1493 51.7367 50.9041 51.6321 57.0696 52.0607" stroke="black" stroke-width="4.99983" stroke-linecap="round" stroke-linejoin="round"/>
<path d="M115.666 34.0761C94.5096 35.5329 87.4808 28.0546 77.8095 22.2805C87.5023 30.2512 89.7841 39.339 114.264 39.1551L115.666 34.0761V34.0761Z" fill="black"/>
</svg>
