<svg width="150" height="131" viewBox="0 0 150 131" fill="none" xmlns="http://www.w3.org/2000/svg">
<path d="M127.17 85.7956C135.312 89.1356 139.23 83.2562 141.648 75.7912C145.065 65.2308 138.757 41.4715 132.447 34.0036C126.61 27.1567 119.384 24.8628 114.008 29.4313" fill="white"/>
<path d="M127.17 85.7956C135.312 89.1356 139.23 83.2562 141.648 75.7912C145.065 65.2308 138.757 41.4715 132.447 34.0036C126.61 27.1567 119.384 24.8628 114.008 29.4313" stroke="black" stroke-width="4.99983" stroke-linecap="round" stroke-linejoin="round"/>
<path d="M59.3035 11.7599C78.2196 7.65494 110.999 20.7839 121.457 40.8882C126.743 51.2887 131.798 75.7926 126.754 85.5393C118.211 102.219 105.199 112.038 88.244 118.263C82.2381 120.462 75.237 121.897 69.346 122.481C45.3041 125.063 26.359 120.382 26.5146 103.664C6.17894 101.831 6.01893 70.9139 20.9245 68.3729C1.14227 55.7574 13.6959 30.7721 35.8576 36.6582C37.9964 32.8163 39.6654 16.028 59.3035 11.7599V11.7599Z" fill="white" stroke="black" stroke-width="4.99983" stroke-linecap="round" stroke-linejoin="round"/>
<path d="M22.0355 70.7892C37.8889 73.1435 43.8599 70.2226 48.0478 69.7091C38.0287 68.4875 35.458 68.4449 24.9122 66.3557C23.1185 65.9982 21.2728 65.4468 19.0849 63.903L19.1834 71.5147C18.826 71.6246 20.894 70.7943 22.0349 70.7892L22.0355 70.7892Z" fill="black"/>
<path d="M24.9469 105.937C34.3459 106.313 45.9442 105.71 53.1727 102.592C48.0014 102.461 34.6542 101.235 26.8637 101.194C26.8637 101.178 26.8802 101.207 24.9464 105.937L24.9469 105.937Z" fill="black"/>
<path d="M116.014 75.3313C105.011 82.1296 101.596 82.603 95.8781 85.0407" stroke="black" stroke-width="4.99983" stroke-linecap="round" stroke-linejoin="round"/>
<path d="M115.035 63.7909C101.387 68.0925 94.4059 68.8789 85.1307 70.9051" stroke="black" stroke-width="4.99983" stroke-linecap="round" stroke-linejoin="round"/>
<path d="M113.453 50.0567C103.748 51.7367 98.9937 51.6321 92.8284 52.0607" stroke="black" stroke-width="4.99983" stroke-linecap="round" stroke-linejoin="round"/>
<path d="M34.2337 34.0761C55.3892 35.5329 62.4178 28.0546 72.0889 22.2805C62.3963 30.2512 60.1146 39.339 35.635 39.1551L34.2337 34.0761V34.0761Z" fill="black"/>
</svg>
