<svg width="212" height="172" viewBox="0 0 212 172" fill="none" xmlns="http://www.w3.org/2000/svg">
<path d="M184.024 84.7795C192.705 86.2205 195.215 79.6153 195.908 71.7991C196.884 60.7426 185.439 38.9867 177.622 33.1134C170.405 27.7398 162.85 27.1145 158.628 32.7666" fill="white"/>
<path d="M184.024 84.7795C192.705 86.2205 195.215 79.6153 195.908 71.7991C196.884 60.7426 185.439 38.9867 177.622 33.1134C170.405 27.7398 162.85 27.1145 158.628 32.7666" stroke="black" stroke-width="4.99993" stroke-linecap="round" stroke-linejoin="round"/>
<path d="M101.36 27.7343C118.885 19.5158 153.767 25.0073 168.444 42.2747C175.915 51.2354 186.306 73.9962 183.562 84.6223C178.951 102.787 168.456 115.26 153.315 125.108C147.95 128.59 141.445 131.55 135.833 133.433C115.19 140.061 97.1647 129.368 89.8841 124.637C76.7308 129.71 61.5136 137.397 47.5574 145.478C26.6824 157.564 19.7699 124.385 39.4412 113.263C48.6501 108.056 55.7354 102.622 76.5671 91.4794C63.3828 92.6304 44.0976 93.4035 31.6369 96.0825C11.0777 100.505 11.4657 68.3068 36.7138 63.4289C53.9076 60.1083 67.6425 60.3202 84.0544 57.2332C85.2829 53.0111 83.1674 36.2729 101.36 27.7343Z" fill="white" stroke="black" stroke-width="4.99993" stroke-linecap="round" stroke-linejoin="round"/>
<path d="M75.0875 89.0991C90.9385 86.7273 99.6129 89.1365 103.802 89.6455C93.784 90.8781 91.2133 90.9236 80.6699 93.0244C78.8766 93.3838 76.8532 94.0938 74.5326 95.35L75.0875 89.0991V89.0991Z" fill="black"/>
<path d="M89.0625 122.275C97.8412 118.896 109.224 116.933 117.071 117.559C107.488 121.025 99.9185 123.751 90.7128 126.84C90.7031 126.816 89.9797 124.532 89.067 122.273L89.0625 122.275Z" fill="black"/>
<path d="M170.816 77.0651C161.606 86.1453 158.382 87.3681 153.351 91.0192" stroke="black" stroke-width="4.99993" stroke-linecap="round" stroke-linejoin="round"/>
<path d="M167.288 66.0333C154.943 73.2692 148.313 75.5919 139.723 79.6349" stroke="black" stroke-width="4.99993" stroke-linecap="round" stroke-linejoin="round"/>
<path d="M162.685 52.9969C153.599 56.7981 148.941 57.7562 143.026 59.5483" stroke="black" stroke-width="4.99993" stroke-linecap="round" stroke-linejoin="round"/>
<path d="M81.8959 55.078C102.844 51.7821 108.029 42.925 116.169 35.1401C108.497 45.0711 108.299 54.439 84.3942 59.7169L81.8959 55.078V55.078Z" fill="black"/>
</svg>
